<svg width="100%" height="100%" viewBox="0 0 1200 800" xmlns="http://www.w3.org/2000/svg">
  <!-- Floating Eye 1 -->
  <g class="floating-eye" style="animation: eye-float 20s ease-in-out infinite;">
    <ellipse cx="200" cy="150" rx="30" ry="20" fill="#1e40af" opacity="0.3"/>
    <ellipse cx="200" cy="150" rx="20" ry="15" fill="#3b82f6" opacity="0.5"/>
    <circle cx="205" cy="148" r="8" fill="#1e40af" opacity="0.8"/>
    <circle cx="208" cy="145" r="3" fill="#60a5fa" opacity="0.9"/>
  </g>
  
  <!-- Floating Eye 2 -->
  <g class="floating-eye" style="animation: eye-float 25s ease-in-out infinite 5s;">
    <ellipse cx="800" cy="300" rx="25" ry="18" fill="#1e40af" opacity="0.2"/>
    <ellipse cx="800" cy="300" rx="18" ry="13" fill="#3b82f6" opacity="0.4"/>
    <circle cx="803" cy="298" r="7" fill="#1e40af" opacity="0.7"/>
    <circle cx="805" cy="296" r="2" fill="#60a5fa" opacity="0.8"/>
  </g>
  
  <!-- Floating Eye 3 -->
  <g class="floating-eye" style="animation: eye-float 30s ease-in-out infinite 10s;">
    <ellipse cx="1000" cy="500" rx="35" ry="22" fill="#1e40af" opacity="0.25"/>
    <ellipse cx="1000" cy="500" rx="25" ry="17" fill="#3b82f6" opacity="0.45"/>
    <circle cx="1005" cy="498" r="10" fill="#1e40af" opacity="0.75"/>
    <circle cx="1008" cy="495" r="4" fill="#60a5fa" opacity="0.85"/>
  </g>
  
  <!-- Floating Eye 4 -->
  <g class="floating-eye" style="animation: eye-float 22s ease-in-out infinite 15s;">
    <ellipse cx="400" cy="600" rx="28" ry="19" fill="#1e40af" opacity="0.3"/>
    <ellipse cx="400" cy="600" rx="19" ry="14" fill="#3b82f6" opacity="0.5"/>
    <circle cx="404" cy="598" r="8" fill="#1e40af" opacity="0.8"/>
    <circle cx="407" cy="595" r="3" fill="#60a5fa" opacity="0.9"/>
  </g>
  
  <!-- Floating Eye 5 -->
  <g class="floating-eye" style="animation: eye-float 28s ease-in-out infinite 20s;">
    <ellipse cx="100" cy="400" rx="32" ry="21" fill="#1e40af" opacity="0.25"/>
    <ellipse cx="100" cy="400" rx="22" ry="16" fill="#3b82f6" opacity="0.45"/>
    <circle cx="105" cy="398" r="9" fill="#1e40af" opacity="0.75"/>
    <circle cx="108" cy="395" r="3" fill="#60a5fa" opacity="0.85"/>
  </g>
  
  <!-- Floating Eye 6 -->
  <g class="floating-eye" style="animation: eye-float 26s ease-in-out infinite 8s;">
    <ellipse cx="600" cy="100" rx="26" ry="18" fill="#1e40af" opacity="0.2"/>
    <ellipse cx="600" cy="100" rx="17" ry="13" fill="#3b82f6" opacity="0.4"/>
    <circle cx="603" cy="98" r="7" fill="#1e40af" opacity="0.7"/>
    <circle cx="605" cy="96" r="2" fill="#60a5fa" opacity="0.8"/>
  </g>
  
  <!-- Floating Eye 7 -->
  <g class="floating-eye" style="animation: eye-float 24s ease-in-out infinite 12s;">
    <ellipse cx="1100" cy="250" rx="29" ry="20" fill="#1e40af" opacity="0.3"/>
    <ellipse cx="1100" cy="250" rx="20" ry="15" fill="#3b82f6" opacity="0.5"/>
    <circle cx="1104" cy="248" r="8" fill="#1e40af" opacity="0.8"/>
    <circle cx="1107" cy="245" r="3" fill="#60a5fa" opacity="0.9"/>
  </g>
  
  <!-- Floating Eye 8 -->
  <g class="floating-eye" style="animation: eye-float 32s ease-in-out infinite 18s;">
    <ellipse cx="300" cy="450" rx="31" ry="21" fill="#1e40af" opacity="0.25"/>
    <ellipse cx="300" cy="450" rx="21" ry="16" fill="#3b82f6" opacity="0.45"/>
    <circle cx="305" cy="448" r="9" fill="#1e40af" opacity="0.75"/>
    <circle cx="308" cy="445" r="3" fill="#60a5fa" opacity="0.85"/>
  </g>
</svg>